<svg width="41" height="40" viewBox="0 0 41 40" fill="none" xmlns="http://www.w3.org/2000/svg">
<mask id="mask0_205_1421" style="mask-type:luminance" maskUnits="userSpaceOnUse" x="0" y="0" width="41" height="40">
<path d="M40.1088 0H0.476562V40H40.1088V0Z" fill="white"/>
</mask>
<g mask="url(#mask0_205_1421)">
<mask id="mask1_205_1421" style="mask-type:luminance" maskUnits="userSpaceOnUse" x="0" y="0" width="40" height="40">
<path d="M39.9628 0.689697H0.475708V39.4829H39.9628V0.689697Z" fill="white"/>
</mask>
<g mask="url(#mask1_205_1421)">
<path d="M1.2197 6.55938C1.434 6.84057 1.68813 7.09023 1.97437 7.30075C2.69387 7.83028 3.58362 8.08715 4.48035 8.02423C5.37708 7.96125 6.22063 7.58276 6.85619 6.95806C7.49173 6.33344 7.87667 5.50455 7.94033 4.62357C8.00399 3.74259 7.74215 2.86859 7.20278 2.16199C6.98921 1.88096 6.7359 1.6313 6.4505 1.4206C5.73114 0.889201 4.84069 0.630786 3.94289 0.692913C3.04508 0.755016 2.20028 1.1335 1.56386 1.75872C0.927448 2.38394 0.542195 3.21387 0.478962 4.09589C0.415729 4.9779 0.678766 5.85269 1.2197 6.55938Z" fill="#FDAF0A"/>
<path d="M33.2379 6.55927C33.4523 6.84007 33.7064 7.08948 33.9926 7.2999C34.7119 7.82791 35.6008 8.08364 36.4965 8.02022C37.3922 7.95689 38.2348 7.57866 38.8697 6.9549C39.5047 6.33105 39.8898 5.50337 39.9542 4.62346C40.0186 3.74353 39.7584 2.87022 39.221 2.16345C39.0068 1.88245 38.7529 1.63281 38.467 1.42204C37.821 0.947871 37.0363 0.69165 36.2297 0.69165C35.4233 0.69165 34.6386 0.947871 33.9926 1.42204C33.7064 1.63281 33.4523 1.88243 33.2379 2.16345C32.7553 2.79811 32.4943 3.56913 32.4943 4.36135C32.4943 5.15362 32.7553 5.92461 33.2379 6.55927Z" fill="#FDAF0A"/>
<path d="M4.76424 11.2152H4.74459C4.39085 11.1647 4.03156 11.1647 3.67782 11.2152C3.0596 11.3028 2.47378 11.5419 1.97433 11.9103C1.68828 12.1211 1.43418 12.3707 1.21966 12.6516C0.8446 13.1424 0.601292 13.7179 0.512153 14.3252C0.460793 14.6727 0.460793 15.0257 0.512153 15.3732C0.61748 16.0916 0.937343 16.7632 1.43127 17.303C1.9252 17.8429 2.57102 18.2266 3.28701 18.4059C4.00297 18.5849 4.75695 18.5514 5.45355 18.3096C6.15017 18.0675 6.75806 17.6281 7.20039 17.0468C7.49465 16.6611 7.70858 16.2222 7.82998 15.7552C7.95138 15.2882 7.97785 14.8023 7.90789 14.3252V14.3067C7.80772 13.6841 7.85774 13.0471 8.05395 12.4469C8.25016 11.8468 8.58706 11.3003 9.03754 10.8515L9.54771 10.3441L10.3024 9.60343L10.815 9.09991C11.2716 8.65731 11.8277 8.32637 12.4386 8.13362C13.0493 7.94086 13.6976 7.89167 14.3312 7.99019H14.3501C14.7041 8.04066 15.0637 8.04066 15.4177 7.99019H15.4365C16.0695 7.8922 16.7172 7.94146 17.3274 8.13406C17.9376 8.32663 18.4932 8.65724 18.9496 9.09912L19.4622 9.60267L20.2168 10.3433L20.7293 10.8468C21.1795 11.2959 21.5163 11.8424 21.7124 12.4425C21.9086 13.0426 21.9589 13.6795 21.859 14.302C21.8587 14.3082 21.8587 14.3144 21.859 14.3206C21.8076 14.6681 21.8076 15.0211 21.859 15.3686C21.9877 16.2417 22.4322 17.0401 23.1111 17.6176C23.7901 18.195 24.658 18.5128 25.556 18.5128C26.4541 18.5128 27.322 18.195 28.001 17.6176C28.6801 17.0401 29.1247 16.2417 29.2533 15.3686C29.3036 15.021 29.3036 14.6681 29.2533 14.3206C29.1639 13.7133 28.9206 13.1377 28.5457 12.647C28.3313 12.366 28.0771 12.1164 27.791 11.9057C27.2919 11.5371 26.7063 11.298 26.0883 11.2106C25.7342 11.1601 25.3748 11.1601 25.0207 11.2106H25.0019C24.3683 11.309 23.7201 11.2599 23.1094 11.0672C22.4987 10.8747 21.9425 10.5439 21.4856 10.1016L20.22 8.86131L19.7074 8.35778C19.2571 7.90901 18.9204 7.36267 18.7242 6.76267C18.5279 6.16268 18.4778 5.52584 18.5778 4.90335V4.88404C18.7185 3.92059 18.464 2.94172 17.8703 2.16252C17.6557 1.88152 17.4017 1.63188 17.1157 1.42114C16.6165 1.05267 16.0309 0.813635 15.4129 0.72608C15.059 0.675617 14.6994 0.675617 14.3454 0.72608C13.7271 0.813658 13.1413 1.05267 12.6418 1.42114C12.3558 1.63188 12.1017 1.88152 11.8872 2.16252C11.5121 2.65321 11.2688 3.22872 11.1797 3.83606C11.1283 4.18356 11.1283 4.53655 11.1797 4.88404C11.1794 4.89049 11.1794 4.89693 11.1797 4.90335C11.2795 5.52582 11.2293 6.16263 11.0331 6.76258C10.8369 7.36248 10.5002 7.90885 10.05 8.35778L8.28051 10.1062C7.82361 10.5484 7.26743 10.8792 6.65672 11.0718C6.046 11.2645 5.39779 11.3136 4.76424 11.2152Z" fill="#FDAF0A"/>
<path d="M22.5663 6.5594C22.7806 6.84059 23.0347 7.09025 23.3209 7.30079C23.7137 7.58985 24.1606 7.80002 24.636 7.91931C25.1116 8.03853 25.6062 8.06453 26.0919 7.99587H26.1109C26.7445 7.89735 27.3929 7.94652 28.0036 8.13929C28.6142 8.33205 29.1704 8.66308 29.6272 9.10565L30.1397 9.60918L30.8943 10.3498L31.4068 10.8533C31.857 11.3023 32.1939 11.8489 32.3899 12.4489C32.586 13.049 32.6363 13.6859 32.5364 14.3085C32.5362 14.3146 32.5362 14.3208 32.5364 14.327C32.4852 14.6745 32.4852 15.0275 32.5364 15.375C32.5359 15.3814 32.5359 15.3879 32.5364 15.3943C32.6344 16.0153 32.5832 16.6503 32.3867 17.2483C32.1904 17.8464 31.8542 18.3911 31.4054 18.8387L29.6255 20.5902C29.1687 21.0325 28.6125 21.3633 28.0018 21.5561C27.3912 21.7487 26.7429 21.7981 26.1093 21.7H26.0905C25.7364 21.6496 25.3767 21.6496 25.0229 21.7C24.4046 21.7875 23.8188 22.0266 23.3193 22.3952C23.0333 22.6058 22.7792 22.8554 22.5647 23.1365C22.1897 23.6271 21.9463 24.2026 21.8572 24.81C21.8058 25.1578 21.8058 25.511 21.8572 25.8588C21.9858 26.7318 22.4304 27.5302 23.1093 28.1078C23.7883 28.6852 24.6562 29.003 25.5542 29.003C26.4523 29.003 27.3202 28.6852 27.9992 28.1078C28.6781 27.5302 29.1227 26.7318 29.2515 25.8588C29.3018 25.511 29.3018 25.1578 29.2515 24.81C29.251 24.8038 29.251 24.7975 29.2515 24.7915C29.1513 24.1691 29.2014 23.5321 29.3977 22.9321C29.5938 22.3321 29.9307 21.7857 30.3811 21.3369L30.8936 20.8334L31.6482 20.0921L32.1607 19.5886C32.6175 19.1461 33.1735 18.8149 33.7843 18.6223C34.395 18.4294 35.0434 18.3805 35.677 18.4789H35.6958C36.6763 18.6179 37.6731 18.3685 38.4666 17.7858C39.2597 17.203 39.7852 16.3344 39.9267 15.3711C39.977 15.0236 39.977 14.6707 39.9267 14.3231C39.8376 13.7158 39.5943 13.1403 39.2193 12.6497C39.0047 12.3686 38.7505 12.119 38.4647 11.9082C37.9656 11.5396 37.38 11.3006 36.7619 11.2132C36.4079 11.1627 36.0482 11.1627 35.6944 11.2132H35.6753C35.0415 11.3121 34.3931 11.2635 33.7819 11.0711C33.1707 10.8788 32.614 10.5481 32.1567 10.1058L30.8929 8.86082L30.3802 8.35727C29.9295 7.90869 29.5924 7.36241 29.3956 6.76241C29.1991 6.16246 29.1485 5.52551 29.2482 4.90286C29.2477 4.89642 29.2477 4.88998 29.2482 4.88355C29.2985 4.53597 29.2985 4.18314 29.2482 3.83555C29.1591 3.22824 28.9158 2.65272 28.5408 2.16201C28.3262 1.88101 28.072 1.63139 27.7862 1.42063C27.2868 1.05207 26.7012 0.813008 26.0834 0.725592C25.7294 0.675128 25.3697 0.675128 25.0159 0.725592C24.3976 0.813147 23.8117 1.05218 23.3123 1.42063C23.0262 1.63139 22.7721 1.88101 22.5576 2.16201C22.1826 2.6527 21.9392 3.22824 21.8501 3.83555C21.7987 4.18307 21.7987 4.53604 21.8501 4.88355C21.9414 5.49249 22.1877 6.06893 22.5663 6.5594Z" fill="#FDAF0A"/>
<path d="M39.2199 23.1307C39.0052 22.8497 38.7511 22.6002 38.4652 22.3894C37.9661 22.0208 37.3803 21.7817 36.7625 21.6944C36.4082 21.6443 36.0483 21.6448 35.694 21.6958C35.0759 21.7833 34.4901 22.0224 33.9905 22.391C33.7044 22.6016 33.4505 22.8513 33.2359 23.1323C32.8612 23.6231 32.6178 24.1987 32.5285 24.8058C32.477 25.1537 32.477 25.5068 32.5285 25.8546C32.528 25.8608 32.528 25.8668 32.5285 25.8731C32.6282 26.4955 32.5781 27.1325 32.3818 27.7323C32.1857 28.3323 31.8489 28.8787 31.3989 29.3275L29.6254 31.0744C29.1684 31.5167 28.6124 31.8476 28.0016 32.0403C27.3908 32.2331 26.7427 32.2823 26.1091 32.1844H26.0901C25.7363 32.1338 25.3766 32.1338 25.0226 32.1844H25.0037C24.3702 32.2823 23.7219 32.2331 23.1113 32.0403C22.5005 31.8476 21.9444 31.5167 21.4875 31.0744L20.2202 29.8296L19.7077 29.3261C19.2574 28.8771 18.9206 28.3309 18.7245 27.7309C18.5282 27.1309 18.4781 26.4941 18.5781 25.8717V25.853C18.7189 24.8894 18.4644 23.9102 17.8706 23.1307C17.656 22.8497 17.402 22.6002 17.1159 22.3894C16.6167 22.021 16.0311 21.782 15.4132 21.6944C15.0592 21.6438 14.6997 21.6438 14.3457 21.6944C13.7274 21.782 13.1416 22.021 12.6421 22.3894C12.3561 22.6002 12.102 22.8497 11.8874 23.1307C11.5124 23.6215 11.2691 24.197 11.18 24.8042C11.1286 25.152 11.1286 25.5052 11.18 25.853C11.25 26.3301 11.415 26.7888 11.6655 27.2032C11.9161 27.6175 12.2473 27.9792 12.6401 28.2676C13.0331 28.5563 13.48 28.7658 13.9554 28.8845C14.4308 29.0034 14.9253 29.0291 15.4109 28.96H15.4298C16.0637 28.8609 16.7126 28.9094 17.3241 29.1018C17.9355 29.294 18.4924 29.6249 18.9499 30.0674L19.4625 30.5709L20.2171 31.3123L20.7296 31.816C21.1799 32.2647 21.5166 32.8112 21.7128 33.411C21.909 34.011 21.9592 34.6477 21.8593 35.2704C21.859 35.2764 21.859 35.2826 21.8593 35.2889C21.8079 35.6367 21.8079 35.9898 21.8593 36.3376C21.9745 37.1217 22.3449 37.8478 22.9151 38.4081C23.4853 38.9682 24.2247 39.3319 25.0226 39.4451C25.3766 39.4945 25.736 39.4945 26.0901 39.4451C26.888 39.3317 27.6271 38.9677 28.1972 38.4077C28.7673 37.8476 29.1378 37.1215 29.2535 36.3376C29.3038 35.9898 29.3038 35.6367 29.2535 35.2889C29.253 35.2826 29.253 35.2764 29.2535 35.2704C29.1526 34.6475 29.202 34.0103 29.3976 33.4098C29.5932 32.8091 29.9296 32.2622 30.38 31.8128L30.8925 31.3093L31.6472 30.5679L32.1566 30.0674C32.6134 29.6242 33.1701 29.2926 33.7813 29.0993C34.3928 28.9062 35.0419 28.8568 35.6759 28.9554H35.6949C36.6753 29.0942 37.6716 28.8448 38.465 28.2623C39.2582 27.6796 39.7839 26.8115 39.9258 25.8484C39.9762 25.5006 39.9762 25.1474 39.9258 24.7996C39.8363 24.194 39.5937 23.6204 39.2199 23.1307Z" fill="#FDAF0A"/>
<path d="M7.20315 33.6153C6.9094 33.2294 6.54111 32.904 6.11933 32.658C5.69754 32.4118 5.23051 32.2499 4.74498 32.1811C4.39123 32.1307 4.03195 32.1307 3.67821 32.1811C3.06011 32.2691 2.47436 32.5081 1.97471 32.8762C1.68866 33.0869 1.43457 33.3365 1.22004 33.6176C0.737364 34.2523 0.476562 35.0232 0.476562 35.8156C0.476562 36.6078 0.737364 37.3787 1.22004 38.0134C1.43457 38.2944 1.68866 38.5441 1.97471 38.7547C2.47436 39.1229 3.06011 39.3619 3.67821 39.4499C4.03195 39.5002 4.39123 39.5002 4.74498 39.4499C5.38607 39.3587 5.99206 39.1053 6.50345 38.7148C7.01484 38.3242 7.41407 37.8097 7.66197 37.2216C7.90987 36.6339 7.99792 35.9927 7.91747 35.3611C7.83704 34.7297 7.59088 34.1296 7.20315 33.6199V33.6153Z" fill="#FDAF0A"/>
<path d="M17.875 33.6159C17.6605 33.3348 17.4063 33.0852 17.1203 32.8745C16.6211 32.5059 16.0356 32.2669 15.4177 32.1794C15.0636 32.129 14.7041 32.129 14.3501 32.1794H14.3313C13.6976 32.2775 13.0494 32.2283 12.4387 32.0355C11.828 31.8426 11.2719 31.5119 10.8149 31.0696L9.54774 29.8301L9.03517 29.3266C8.58471 28.8779 8.2478 28.3317 8.0516 27.7314C7.85539 27.1314 7.80537 26.4946 7.90554 25.8722V25.8535C7.9569 25.5059 7.9569 25.1526 7.90554 24.8048V24.7863C7.80529 24.1639 7.8553 23.5269 8.0515 22.9269C8.24773 22.3268 8.58467 21.7806 9.03517 21.3319L9.54774 20.8284L10.3024 20.0871L10.8149 19.5836C11.2716 19.1408 11.8278 18.8099 12.4385 18.617C13.0493 18.4244 13.6976 18.3752 14.3313 18.4736H14.3501C15.0811 18.5771 15.8271 18.4653 16.4935 18.1524C17.16 17.8395 17.717 17.3395 18.0942 16.7156C18.4715 16.0917 18.652 15.372 18.613 14.6474C18.574 13.9228 18.3172 13.2257 17.875 12.6445C17.6605 12.3635 17.4063 12.1139 17.1203 11.9031C16.6211 11.5347 16.0356 11.2956 15.4177 11.208C15.0636 11.1576 14.7041 11.1576 14.3501 11.208C13.7319 11.2956 13.146 11.5347 12.6466 11.9031C12.3606 12.1139 12.1064 12.3635 11.8919 12.6445C11.5168 13.1352 11.2735 13.7107 11.1844 14.318C11.1331 14.6655 11.1331 15.0185 11.1844 15.366C11.184 15.3724 11.184 15.3789 11.1844 15.3853C11.2848 16.0073 11.2354 16.6437 11.0402 17.2434C10.845 17.8431 10.5093 18.3898 10.0603 18.839L8.28051 20.5905C7.82359 21.0328 7.26741 21.3635 6.65674 21.5562C6.04605 21.749 5.39786 21.7984 4.76424 21.7003H4.74459C4.39085 21.6499 4.03156 21.6499 3.67782 21.7003C3.05963 21.7878 2.47379 22.0268 1.97432 22.3952C1.68828 22.6061 1.43419 22.8557 1.21965 23.1368C0.8446 23.6273 0.601293 24.2029 0.512152 24.8103C0.460793 25.1581 0.460793 25.5112 0.512152 25.8591C0.582715 26.3357 0.748168 26.794 0.999068 27.2081C1.24997 27.6217 1.5814 27.9831 1.97442 28.2711C2.36745 28.5591 2.81439 28.7682 3.28969 28.8864C3.76499 29.0049 4.25939 29.0298 4.74459 28.9605H4.76424C5.39767 28.8619 6.04579 28.9109 6.6565 29.1033C7.26722 29.2954 7.82347 29.6259 8.28051 30.068L8.79305 30.5715L9.54774 31.3128L10.0603 31.8165C10.5105 32.2653 10.8472 32.8117 11.0434 33.4115C11.2396 34.0115 11.2898 34.6485 11.1899 35.2709C11.1895 35.2771 11.1895 35.2831 11.1899 35.2894C11.1386 35.6372 11.1386 35.9903 11.1899 36.3381C11.3052 37.1222 11.6756 37.8486 12.2457 38.4087C12.8159 38.9687 13.5552 39.3325 14.3533 39.4459C14.7073 39.4953 15.0667 39.4953 15.4208 39.4459C16.0618 39.3546 16.6677 39.1011 17.1789 38.7105C17.6903 38.3197 18.0894 37.8054 18.3373 37.2174C18.585 36.6296 18.673 35.9883 18.5925 35.3571C18.5121 34.7256 18.2659 34.1256 17.8782 33.6159H17.875Z" fill="#FDAF0A"/>
<path d="M39.221 33.6154C38.9273 33.2295 38.5592 32.9043 38.1374 32.6581C37.7159 32.4121 37.249 32.25 36.7636 32.1812C36.4095 32.1308 36.0501 32.1308 35.696 32.1812C35.078 32.2692 34.4921 32.5082 33.9926 32.8764C33.7064 33.087 33.4523 33.3367 33.2379 33.6177C32.7553 34.2524 32.4943 35.0233 32.4943 35.8157C32.4943 36.6079 32.7553 37.3788 33.2379 38.0135C33.4523 38.2946 33.7064 38.5442 33.9926 38.7548C34.4921 39.123 35.078 39.362 35.696 39.45C36.0501 39.5004 36.4095 39.5004 36.7636 39.45C37.4046 39.3588 38.0105 39.1054 38.5218 38.7147C39.0331 38.3239 39.4323 37.8095 39.6801 37.2215C39.9279 36.6335 40.0158 35.9924 39.9354 35.3612C39.855 34.7298 39.6086 34.1298 39.221 33.62V33.6154Z" fill="#FDAF0A"/>
</g>
</g>
</svg>
