<svg width="11" height="11" viewBox="0 0 11 11" fill="none" xmlns="http://www.w3.org/2000/svg">
<path d="M6.35102 4.54445L7.21794 3.67753C6.78558 3.2908 6.21474 3.05566 5.58896 3.05566C4.23895 3.05566 3.14453 4.15008 3.14453 5.50011C3.14453 6.85011 4.23895 7.94455 5.58896 7.94455C6.26809 7.94455 6.8825 7.6676 7.3255 7.22051L6.52335 6.41836L6.39539 6.41861C6.18015 6.60769 5.89794 6.72233 5.58896 6.72233C4.91399 6.72233 4.36674 6.17514 4.36674 5.50011C4.36674 4.82508 4.91399 4.27789 5.58896 4.27789C5.87716 4.27789 6.14208 4.37762 6.35102 4.54445Z" fill="#657E7E"/>
<path fill-rule="evenodd" clip-rule="evenodd" d="M5.5 0C8.53759 0 11 2.46244 11 5.5C11 8.53759 8.53759 11 5.5 11C2.46244 11 0 8.53759 0 5.5C0 2.46244 2.46244 0 5.5 0ZM5.5 1.22222C7.86256 1.22222 9.77778 3.13745 9.77778 5.5C9.77778 7.86256 7.86256 9.77778 5.5 9.77778C3.13745 9.77778 1.22222 7.86256 1.22222 5.5C1.22222 3.13745 3.13745 1.22222 5.5 1.22222Z" fill="#657E7E"/>
</svg>
