<svg width="155" height="42" viewBox="0 0 155 42" fill="none" xmlns="http://www.w3.org/2000/svg">
<path d="M11.3098 0.533203V25.2299C11.3098 27.4593 11.8677 29.0379 12.9841 29.9656C14.1006 30.8933 15.4784 31.358 17.1178 31.3595C18.759 31.3595 20.1375 30.895 21.254 29.9656C22.3704 29.0362 22.9283 27.4576 22.9283 25.2299V0.533203H33.3475V26.406C33.3475 30.5332 31.9162 34.0445 29.0538 36.9404C26.15 39.8294 22.1712 41.2733 17.1178 41.2716C12.0645 41.2699 8.09753 39.8228 5.2168 36.9304C2.3326 34.0428 0.890625 30.5347 0.890625 26.406V0.533203H11.3098Z" fill="#FDAF0A"/>
<path d="M50.2214 0.533203L60.9835 21.5247L71.723 0.533203H82.1572V40.7837H71.723V21.5886L64.5775 36.3869H57.3696L50.2214 21.5886V40.7837H39.7899V0.533203H50.2214Z" fill="#FDAF0A"/>
<path d="M117.34 0.533203V10.1307H98.8175V17.3755H116.14V26.9756H98.8175V40.7837H88.3515V0.533203H117.34Z" fill="#FDAF0A"/>
<path d="M122.047 0.533203H155.743V9.82194H144.151V40.7837H133.701V9.82194H122.047V0.533203Z" fill="#FDAF0A"/>
</svg>
