<svg width="20" height="20" viewBox="0 0 20 20" fill="none" xmlns="http://www.w3.org/2000/svg">
<path d="M13.7499 2.49987C14.7436 2.50283 15.6958 2.8989 16.3984 3.60157C17.1011 4.30424 17.4972 5.25641 17.5001 6.25013V13.7499C17.4972 14.7436 17.1011 15.6958 16.3984 16.3984C15.6958 17.1011 14.7436 17.4972 13.7499 17.5001H6.25013C5.25641 17.4972 4.30424 17.1011 3.60157 16.3984C2.8989 15.6958 2.50283 14.7436 2.49987 13.7499V6.25013C2.50283 5.25641 2.8989 4.30424 3.60157 3.60157C4.30424 2.8989 5.25641 2.50283 6.25013 2.49987H13.7499ZM13.7499 1H6.25013C3.3625 1 1 3.3625 1 6.25013V13.7499C1 16.6375 3.3625 19 6.25013 19H13.7499C16.6375 19 19 16.6375 19 13.7499V6.25013C19 3.3625 16.6375 1 13.7499 1Z" fill="#A0B0B0" stroke="#A0B0B0" stroke-width="0.5"/>
<path d="M14.8757 6.25C14.6532 6.25 14.4357 6.18402 14.2507 6.0604C14.0657 5.93679 13.9215 5.76109 13.8364 5.55552C13.7512 5.34995 13.7289 5.12375 13.7723 4.90552C13.8158 4.6873 13.9229 4.48684 14.0802 4.32951C14.2376 4.17217 14.438 4.06503 14.6563 4.02162C14.8745 3.97821 15.1007 4.00049 15.3063 4.08564C15.5118 4.17078 15.6875 4.31498 15.8111 4.49998C15.9348 4.68499 16.0007 4.9025 16.0007 5.125C16.0011 5.27283 15.9722 5.41926 15.9157 5.55589C15.8593 5.69253 15.7765 5.81667 15.6719 5.9212C15.5674 6.02573 15.4433 6.10859 15.3066 6.16501C15.17 6.22144 15.0236 6.25032 14.8757 6.25Z" fill="#A0B0B0" stroke="#A0B0B0" stroke-width="0.5"/>
<path d="M10 6.99987C10.5934 6.99987 11.1734 7.17582 11.6668 7.50548C12.1602 7.83514 12.5447 8.3037 12.7718 8.8519C12.9988 9.4001 13.0582 10.0033 12.9425 10.5853C12.8267 11.1673 12.541 11.7018 12.1214 12.1214C11.7018 12.541 11.1673 12.8267 10.5853 12.9425C10.0033 13.0582 9.4001 12.9988 8.8519 12.7718C8.3037 12.5447 7.83514 12.1602 7.50548 11.6668C7.17582 11.1734 6.99987 10.5934 6.99987 10C7.00072 9.20458 7.31708 8.44197 7.87953 7.87952C8.44198 7.31707 9.20458 7.00072 10 6.99987ZM10 5.5C9.10999 5.5 8.23996 5.76392 7.49994 6.25839C6.75991 6.75285 6.18314 7.45566 5.84254 8.27792C5.50195 9.10019 5.41283 10.005 5.58647 10.8779C5.7601 11.7508 6.18869 12.5526 6.81802 13.182C7.44736 13.8113 8.24918 14.2399 9.1221 14.4135C9.99501 14.5872 10.8998 14.4981 11.7221 14.1575C12.5443 13.8169 13.2471 13.2401 13.7416 12.5001C14.2361 11.76 14.5 10.89 14.5 10C14.5 8.80653 14.0259 7.66193 13.182 6.81802C12.3381 5.97411 11.1935 5.5 10 5.5Z" fill="#A0B0B0" stroke="#A0B0B0" stroke-width="0.5"/>
</svg>
