<svg width="140" height="22" viewBox="0 0 140 22" fill="none" xmlns="http://www.w3.org/2000/svg">
<path d="M2 9.6C1.2268 9.6 0.6 10.2268 0.6 11C0.6 11.7732 1.2268 12.4 2 12.4L2 9.6ZM138.99 11.9899C139.537 11.4432 139.537 10.5568 138.99 10.01L130.08 1.10049C129.534 0.55376 128.647 0.55376 128.101 1.10049C127.554 1.64723 127.554 2.53366 128.101 3.08039L136.02 11L128.101 18.9196C127.554 19.4663 127.554 20.3527 128.101 20.8995C128.647 21.4462 129.534 21.4462 130.08 20.8995L138.99 11.9899ZM2 12.4L138 12.4L138 9.59999L2 9.6L2 12.4Z" fill="#D2DBDB"/>
</svg>
