<svg width="107" height="29" viewBox="0 0 107 29" fill="none" xmlns="http://www.w3.org/2000/svg">
<path d="M8.14103 0.133333V17.1324C8.14103 18.6669 8.52491 19.7534 9.293 20.392C10.0611 21.0305 11.009 21.3504 12.137 21.3514C13.2661 21.3514 14.2145 21.0317 14.9826 20.392C15.7507 19.7523 16.1346 18.6657 16.1346 17.1324V0.133333H23.303V17.9419C23.303 20.7827 22.3182 23.1996 20.3489 25.1928C18.3511 27.1814 15.6137 28.1752 12.137 28.174C8.66025 28.1729 5.93101 27.1768 3.94907 25.1859C1.96474 23.1984 0.972656 20.7837 0.972656 17.9419V0.133333H8.14103Z" fill="#FDAF0A"/>
<path d="M34.9122 0.133333L42.3165 14.582L49.7053 0.133333H56.8841V27.8382H49.7053V14.626L44.7892 24.8118H39.8302L34.9122 14.626V27.8382H27.7354V0.133333H34.9122Z" fill="#FDAF0A"/>
<path d="M81.0896 0.133333V6.73944H68.3463V11.7261H80.2641V18.3339H68.3463V27.8382H61.1458V0.133333H81.0896Z" fill="#FDAF0A"/>
<path d="M84.3279 0.133333H107.51V6.52688H99.5355V27.8382H92.3462V6.52688H84.3279V0.133333Z" fill="#FDAF0A"/>
</svg>
