<svg width="53" height="53" viewBox="0 0 53 53" fill="none" xmlns="http://www.w3.org/2000/svg">
<mask id="mask0_211_126" style="mask-type:luminance" maskUnits="userSpaceOnUse" x="0" y="0" width="53" height="53">
<path d="M52.859 0H0.370117V53H52.859V0Z" fill="white"/>
</mask>
<g mask="url(#mask0_211_126)">
<mask id="mask1_211_126" style="mask-type:luminance" maskUnits="userSpaceOnUse" x="0" y="0" width="53" height="53">
<path d="M52.6659 0.913799H0.369141V52.3148H52.6659V0.913799Z" fill="white"/>
</mask>
<g mask="url(#mask1_211_126)">
<path d="M1.35459 8.69063C1.63841 9.0632 1.97498 9.394 2.35408 9.67293C3.30698 10.3746 4.48537 10.7149 5.673 10.6316C6.86062 10.5481 7.97782 10.0466 8.81956 9.21887C9.66127 8.39125 10.1711 7.29297 10.2554 6.12567C10.3397 4.95838 9.99293 3.80033 9.27859 2.86408C8.99573 2.49172 8.66024 2.16092 8.28226 1.88174C7.32955 1.17763 6.15024 0.835235 4.96118 0.917553C3.77212 0.99984 2.65328 1.50134 1.8104 2.32975C0.967534 3.15816 0.457306 4.25782 0.37356 5.42649C0.289814 6.59516 0.63818 7.75425 1.35459 8.69063Z" fill="#FDAF0A"/>
<path d="M43.7595 8.69064C44.0434 9.06269 44.38 9.39315 44.7589 9.67196C45.7117 10.3716 46.8889 10.7104 48.0751 10.6264C49.2614 10.5425 50.3773 10.0413 51.2182 9.21484C52.0592 8.38823 52.5692 7.29157 52.6545 6.12568C52.7398 4.95977 52.3952 3.80264 51.6834 2.86617C51.3998 2.49384 51.0635 2.16307 50.6849 1.88381C49.8293 1.25553 48.79 0.916035 47.7218 0.916035C46.6538 0.916035 45.6145 1.25553 44.7589 1.88381C44.38 2.16307 44.0434 2.49381 43.7595 2.86617C43.1203 3.7071 42.7747 4.7287 42.7747 5.77839C42.7747 6.82814 43.1203 7.84971 43.7595 8.69064Z" fill="#FDAF0A"/>
<path d="M6.04967 14.8593H6.02364C5.55515 14.7924 5.07931 14.7924 4.61081 14.8593C3.79205 14.9754 3.01619 15.2921 2.35471 15.7803C1.97587 16.0595 1.63934 16.3902 1.35522 16.7625C0.858496 17.4128 0.53626 18.1754 0.418204 18.98C0.350182 19.4404 0.350182 19.9082 0.418204 20.3686C0.557699 21.3205 0.981325 22.2104 1.63549 22.9256C2.28965 23.6409 3.14496 24.1493 4.09322 24.3869C5.04145 24.6241 6.04002 24.5797 6.96259 24.2593C7.88519 23.9386 8.69029 23.3564 9.2761 22.5861C9.66582 22.075 9.94915 21.4935 10.1099 20.8748C10.2707 20.256 10.3058 19.6122 10.2131 18.98V18.9554C10.0804 18.1306 10.1467 17.2865 10.4066 16.4913C10.6664 15.6961 11.1126 14.9721 11.7092 14.3773L12.3849 13.7051L13.3844 12.7237L14.0632 12.0565C14.668 11.4701 15.4046 11.0316 16.2135 10.7762C17.0224 10.5208 17.881 10.4556 18.7202 10.5861H18.7452C19.214 10.653 19.6902 10.653 20.159 10.5861H20.184C21.0224 10.4563 21.8802 10.5216 22.6883 10.7767C23.4964 11.0319 24.2323 11.47 24.8368 12.0555L25.5156 12.7227L26.515 13.704L27.1939 14.3712C27.7901 14.9661 28.2361 15.6903 28.4958 16.4854C28.7557 17.2805 28.8222 18.1244 28.69 18.9493C28.6895 18.9575 28.6895 18.9657 28.69 18.9739C28.6219 19.4343 28.6219 19.902 28.69 20.3625C28.8604 21.5194 29.4491 22.5772 30.3483 23.3424C31.2475 24.1075 32.3969 24.5286 33.5863 24.5286C34.7757 24.5286 35.9252 24.1075 36.8244 23.3424C37.7239 22.5772 38.3126 21.5194 38.483 20.3625C38.5496 19.9019 38.5496 19.4344 38.483 18.9739C38.3646 18.1692 38.0424 17.4066 37.5458 16.7564C37.2618 16.3841 36.9253 16.0534 36.5463 15.7741C35.8853 15.2857 35.1098 14.969 34.2912 14.8531C33.8223 14.7863 33.3463 14.7863 32.8774 14.8531H32.8524C32.0133 14.9836 31.1549 14.9185 30.346 14.6632C29.5371 14.408 28.8006 13.9698 28.1955 13.3837L26.5192 11.7404L25.8404 11.0732C25.2441 10.4786 24.7981 9.75466 24.5382 8.95967C24.2783 8.16467 24.2119 7.32087 24.3444 6.49607V6.47048C24.5307 5.19391 24.1936 3.8969 23.4073 2.86447C23.1232 2.49214 22.7867 2.16137 22.4079 1.88213C21.7468 1.39392 20.9713 1.07719 20.1528 0.961182C19.684 0.894318 19.2077 0.894318 18.7389 0.961182C17.9201 1.07722 17.1442 1.39392 16.4828 1.88213C16.104 2.16137 15.7674 2.49214 15.4834 2.86447C14.9865 3.51463 14.6643 4.27719 14.5463 5.08191C14.4783 5.54234 14.4783 6.01005 14.5463 6.47048C14.5458 6.47902 14.5458 6.48756 14.5463 6.49607C14.6784 7.32084 14.612 8.16461 14.3522 8.95954C14.0923 9.75442 13.6464 10.4784 13.0502 11.0732L10.7066 13.3898C10.1015 13.9758 9.3649 14.4141 8.55606 14.6693C7.74723 14.9245 6.88874 14.9896 6.04967 14.8593Z" fill="#FDAF0A"/>
<path d="M29.6265 8.6907C29.9103 9.06327 30.2469 9.39407 30.6259 9.67304C31.1461 10.056 31.738 10.3345 32.3676 10.4926C32.9974 10.6505 33.6525 10.685 34.2958 10.594H34.321C35.1601 10.4635 36.0188 10.5286 36.8277 10.7841C37.6363 11.0395 38.373 11.4781 38.9779 12.0645L39.6567 12.7317L40.6561 13.7129L41.3349 14.3801C41.9311 14.9751 42.3773 15.6992 42.6369 16.4943C42.8966 17.2894 42.9632 18.1333 42.8309 18.9582C42.8306 18.9664 42.8306 18.9746 42.8309 18.9828C42.763 19.4432 42.763 19.9109 42.8309 20.3714C42.8303 20.3799 42.8303 20.3884 42.8309 20.3969C42.9607 21.2198 42.8929 22.0611 42.6326 22.8534C42.3726 23.6459 41.9274 24.3677 41.333 24.9608L38.9757 27.2816C38.3708 27.8676 37.6341 28.3058 36.8252 28.5613C36.0166 28.8165 35.1579 28.882 34.3188 28.752H34.2939C33.825 28.6853 33.3486 28.6853 32.8801 28.752C32.0612 28.8679 31.2853 29.1847 30.6238 29.6731C30.245 29.9522 29.9084 30.283 29.6244 30.6554C29.1277 31.3054 28.8054 32.0679 28.6873 32.8728C28.6193 33.3336 28.6193 33.8015 28.6873 34.2624C28.8577 35.4191 29.4465 36.477 30.3457 37.2423C31.2449 38.0074 32.3944 38.4284 33.5837 38.4284C34.7731 38.4284 35.9226 38.0074 36.8218 37.2423C37.721 36.477 38.3097 35.4191 38.4804 34.2624C38.547 33.8015 38.547 33.3336 38.4804 32.8728C38.4797 32.8645 38.4797 32.8562 38.4804 32.8483C38.3477 32.0236 38.4141 31.1796 38.674 30.3846C38.9337 29.5895 39.3799 28.8655 39.9764 28.2709L40.6552 27.6038L41.6546 26.6215L42.3334 25.9544C42.9383 25.3681 43.6747 24.9292 44.4836 24.674C45.2925 24.4185 46.1512 24.3536 46.9903 24.484H47.0152C48.3138 24.6682 49.634 24.3377 50.6848 23.5657C51.7353 22.7934 52.4312 21.6426 52.6186 20.3663C52.6852 19.9057 52.6852 19.4382 52.6186 18.9776C52.5006 18.173 52.1784 17.4104 51.6817 16.7603C51.3975 16.3879 51.0609 16.0572 50.6823 15.7779C50.0213 15.2895 49.2457 14.9728 48.4272 14.8569C47.9583 14.7901 47.4819 14.7901 47.0133 14.8569H46.9881C46.1487 14.988 45.29 14.9237 44.4805 14.6687C43.6709 14.4139 42.9337 13.9757 42.3281 13.3896L40.6542 11.7401L39.9752 11.0729C39.3783 10.4785 38.9318 9.75468 38.6712 8.95969C38.4109 8.16475 38.344 7.32079 38.476 6.49578C38.4754 6.48724 38.4754 6.4787 38.476 6.4702C38.5426 6.00964 38.5426 5.54215 38.476 5.08159C38.358 4.2769 38.0358 3.51434 37.5392 2.86415C37.2549 2.49182 36.9183 2.16108 36.5397 1.88182C35.8784 1.39348 35.1028 1.07672 34.2846 0.960896C33.8157 0.894031 33.3393 0.894031 32.8707 0.960896C32.0519 1.07691 31.2759 1.39363 30.6144 1.88182C30.2356 2.16108 29.8991 2.49182 29.615 2.86415C29.1183 3.51431 28.796 4.2769 28.678 5.08159C28.6099 5.54205 28.6099 6.00974 28.678 6.4702C28.7989 7.27703 29.1251 8.04082 29.6265 8.6907Z" fill="#FDAF0A"/>
<path d="M51.6821 30.648C51.3979 30.2756 51.0613 29.9451 50.6827 29.6657C50.0217 29.1773 49.2458 28.8606 48.4276 28.7449C47.9584 28.6785 47.4817 28.6791 47.0125 28.7468C46.1939 28.8627 45.418 29.1795 44.7564 29.6679C44.3775 29.9469 44.0412 30.2777 43.757 30.6502C43.2607 31.3004 42.9384 32.063 42.8201 32.8675C42.7519 33.3284 42.7519 33.7963 42.8201 34.2572C42.8195 34.2654 42.8195 34.2734 42.8201 34.2816C42.9521 35.1064 42.8858 35.9503 42.6258 36.7451C42.3661 37.5401 41.92 38.2641 41.324 38.8587L38.9752 41.1734C38.3699 41.7594 37.6336 42.1979 36.8247 42.4531C36.0158 42.7087 35.1574 42.7738 34.3183 42.6441H34.2931C33.8245 42.5771 33.3481 42.5771 32.8792 42.6441H32.8543C32.0152 42.7738 31.1566 42.7087 30.3479 42.4531C29.539 42.1979 28.8025 41.7594 28.1974 41.1734L26.519 39.524L25.8402 38.8569C25.2439 38.262 24.7978 37.5383 24.538 36.7432C24.2781 35.9482 24.2117 35.1045 24.3441 34.2798V34.255C24.5306 32.9783 24.1936 31.6808 23.4072 30.648C23.123 30.2756 22.7865 29.9451 22.4076 29.6657C21.7465 29.1776 20.971 28.8609 20.1526 28.7449C19.6838 28.6779 19.2076 28.6779 18.7388 28.7449C17.92 28.8609 17.1441 29.1776 16.4826 29.6657C16.1038 29.9451 15.7672 30.2756 15.4831 30.648C14.9864 31.2983 14.6641 32.0609 14.5461 32.8654C14.4781 33.3263 14.4781 33.7942 14.5461 34.255C14.6388 34.8872 14.8574 35.495 15.1892 36.044C15.521 36.593 15.9597 37.0722 16.48 37.4544C17.0004 37.8369 17.5923 38.1145 18.2218 38.2718C18.8515 38.4294 19.5064 38.4633 20.1495 38.3718H20.1745C21.0141 38.2406 21.8736 38.3048 22.6833 38.5597C23.4931 38.8143 24.2307 39.2528 24.8366 39.8392L25.5155 40.5063L26.5149 41.4886L27.1937 42.156C27.79 42.7506 28.2359 43.4746 28.4958 44.2693C28.7556 45.0644 28.8221 45.908 28.6898 46.7331C28.6894 46.741 28.6894 46.7493 28.6898 46.7575C28.6218 47.2184 28.6218 47.6863 28.6898 48.1472C28.8424 49.1861 29.333 50.1482 30.0881 50.8906C30.8432 51.6327 31.8225 52.1146 32.8792 52.2646C33.3481 52.3301 33.8242 52.3301 34.2931 52.2646C35.3498 52.1143 36.3287 51.632 37.0837 50.89C37.8388 50.1479 38.3294 49.1858 38.4826 48.1472C38.5493 47.6863 38.5493 47.2184 38.4826 46.7575C38.482 46.7493 38.482 46.741 38.4826 46.7331C38.3491 45.9077 38.4144 45.0634 38.6735 44.2678C38.9325 43.4719 39.3781 42.7472 39.9746 42.1517L40.6534 41.4846L41.6528 40.5023L42.3275 39.8392C42.9325 39.2519 43.6698 38.8125 44.4793 38.5564C45.2891 38.3005 46.1488 38.235 46.9885 38.3657H47.0137C48.3121 38.5496 49.6316 38.2191 50.6824 37.4474C51.7329 36.6753 52.4291 35.525 52.6171 34.2489C52.6838 33.788 52.6838 33.3201 52.6171 32.8593C52.4985 32.0569 52.1772 31.2968 51.6821 30.648Z" fill="#FDAF0A"/>
<path d="M9.27881 44.5402C8.88977 44.0288 8.402 43.5976 7.8434 43.2717C7.28477 42.9455 6.66624 42.731 6.0232 42.6398C5.55471 42.5731 5.07887 42.5731 4.61037 42.6398C3.79176 42.7564 3.016 43.0731 2.35426 43.5609C1.97542 43.84 1.6389 44.1708 1.35477 44.5432C0.715523 45.3842 0.370117 46.4056 0.370117 47.4556C0.370117 48.5052 0.715523 49.5267 1.35477 50.3676C1.6389 50.74 1.97542 51.0708 2.35426 51.3499C3.016 51.8377 3.79176 52.1544 4.61037 52.271C5.07887 52.3377 5.55471 52.3377 6.0232 52.271C6.87226 52.1501 7.67484 51.8144 8.35212 51.297C9.02941 50.7795 9.55815 50.0977 9.88647 49.3186C10.2148 48.5398 10.3314 47.6903 10.2249 46.8533C10.1183 46.0167 9.79232 45.2217 9.27881 44.5463V44.5402Z" fill="#FDAF0A"/>
<path d="M23.4136 44.5402C23.1294 44.1677 22.7929 43.8369 22.4141 43.5579C21.753 43.0695 20.9774 42.7527 20.1591 42.6368C19.6901 42.57 19.214 42.57 18.7452 42.6368H18.7202C17.881 42.7668 17.0225 42.7016 16.2137 42.4461C15.4049 42.1906 14.6684 41.7524 14.0632 41.1664L12.3849 39.524L11.7061 38.8569C11.1095 38.2623 10.6633 37.5386 10.4034 36.7432C10.1436 35.9482 10.0773 35.1045 10.21 34.2798V34.255C10.278 33.7945 10.278 33.3263 10.21 32.8654V32.8409C10.0772 32.0162 10.1435 31.1722 10.4033 30.3772C10.6632 29.5822 11.1094 28.8585 11.7061 28.2639L12.3849 27.5968L13.3843 26.6145L14.0632 25.9473C14.6681 25.3607 15.4046 24.9222 16.2135 24.6667C17.0224 24.4115 17.881 24.3463 18.7202 24.4766H18.7452C19.7134 24.6137 20.7014 24.4656 21.5839 24.051C22.4666 23.6364 23.2043 22.974 23.7039 22.1473C24.2036 21.3206 24.4426 20.367 24.3909 19.4069C24.3393 18.4468 23.9992 17.5232 23.4136 16.753C23.1294 16.3807 22.7929 16.05 22.4141 15.7707C21.753 15.2825 20.9774 14.9658 20.1591 14.8497C19.6901 14.7829 19.214 14.7829 18.7452 14.8497C17.9264 14.9658 17.1505 15.2825 16.4891 15.7707C16.1102 16.05 15.7737 16.3807 15.4895 16.753C14.9928 17.4032 14.6706 18.1658 14.5526 18.9705C14.4845 19.4309 14.4845 19.8986 14.5526 20.3591C14.552 20.3676 14.552 20.3761 14.5526 20.3846C14.6855 21.2088 14.62 22.052 14.3616 22.8466C14.103 23.6413 13.6584 24.3656 13.0637 24.9608L10.7066 27.2816C10.1015 27.8676 9.36487 28.3058 8.55609 28.561C7.74729 28.8165 6.88883 28.882 6.04967 28.752H6.02364C5.55515 28.6853 5.07931 28.6853 4.61081 28.752C3.79208 28.8679 3.01619 29.1847 2.3547 29.6728C1.97587 29.9522 1.63935 30.283 1.35522 30.6554C0.858496 31.3053 0.53626 32.0679 0.418203 32.8728C0.350182 33.3336 0.350182 33.8015 0.418203 34.2624C0.511655 34.894 0.730782 35.5011 1.06307 36.0498C1.39537 36.5979 1.83431 37.0768 2.35483 37.4584C2.87536 37.84 3.46728 38.1169 4.09677 38.2736C4.72626 38.4306 5.38104 38.4636 6.02364 38.3718H6.04967C6.88858 38.2412 7.74695 38.306 8.55578 38.5609C9.36462 38.8156 10.1013 39.2535 10.7066 39.8392L11.3854 40.5063L12.3849 41.4886L13.0637 42.156C13.66 42.7506 14.106 43.4746 14.3658 44.2693C14.6256 45.0644 14.6921 45.9084 14.5599 46.7331C14.5593 46.7413 14.5593 46.7493 14.5599 46.7575C14.4918 47.2184 14.4918 47.6863 14.5599 48.1472C14.7125 49.1861 15.203 50.1485 15.9581 50.8906C16.7133 51.6327 17.6924 52.1146 18.7494 52.2649C19.2183 52.3304 19.6943 52.3304 20.1632 52.2649C21.0121 52.144 21.8146 51.808 22.4917 51.2905C23.1689 50.7728 23.6975 50.0913 24.0258 49.3122C24.3539 48.5333 24.4704 47.6835 24.3638 46.8472C24.2573 46.0106 23.9312 45.2155 23.4178 44.5402H23.4136Z" fill="#FDAF0A"/>
<path d="M51.6834 44.5402C51.2945 44.0288 50.807 43.598 50.2484 43.2717C49.6901 42.9458 49.0718 42.731 48.4288 42.6398C47.9599 42.5731 47.4839 42.5731 47.015 42.6398C46.1964 42.7564 45.4205 43.0731 44.7589 43.5609C44.38 43.84 44.0434 44.1708 43.7595 44.5432C43.1203 45.3842 42.7747 46.4056 42.7747 47.4556C42.7747 48.5052 43.1203 49.5267 43.7595 50.3676C44.0434 50.74 44.38 51.0708 44.7589 51.3499C45.4205 51.8377 46.1964 52.1544 47.015 52.271C47.4839 52.3377 47.9599 52.3377 48.4288 52.271C49.2779 52.1501 50.0803 51.8144 50.7574 51.2967C51.4346 50.7789 51.9633 50.0974 52.2915 49.3183C52.6197 48.5392 52.7361 47.6897 52.6296 46.8533C52.5231 46.0167 52.1968 45.2217 51.6834 44.5463V44.5402Z" fill="#FDAF0A"/>
</g>
</g>
</svg>
