<svg width="35" height="41" viewBox="0 0 35 41" fill="none" xmlns="http://www.w3.org/2000/svg">
<path d="M4.04306 41C3.37143 40.9987 2.71169 40.8194 2.12873 40.4797C0.816051 39.7221 0 38.2515 0 36.6549V4.34528C0 2.74429 0.816051 1.2781 2.12873 0.520493C2.72557 0.171144 3.40359 -0.00850972 4.09191 0.000309768C4.78024 0.00912926 5.4536 0.206098 6.04162 0.570629L33.154 17.0998C33.719 17.4606 34.1848 17.9617 34.5077 18.5561C34.8306 19.1505 35 19.8186 35 20.4979C35 21.1771 34.8306 21.8453 34.5077 22.4396C34.1848 23.034 33.719 23.5351 33.154 23.896L6.03725 40.4296C5.43549 40.8001 4.74624 40.9972 4.04306 41Z" fill="#FDAF0A"/>
</svg>
